<svg width="267" height="657" viewBox="0 0 267 657" fill="none" xmlns="http://www.w3.org/2000/svg">
<path fill-rule="evenodd" clip-rule="evenodd" d="M67.091 507.198L27.3233 499.834C27.3233 499.834 20.8085 574.05 68.6002 656.941H72.3733L69.3548 545.831L77.3033 545.529L67.091 507.198Z" fill="url(#paint0_linear_284_598)"/>
<path fill-rule="evenodd" clip-rule="evenodd" d="M209.427 507.4L250.302 499.834C250.302 499.834 256.666 574.05 208.924 656.941H205.151L208.17 545.832L200.271 545.529L209.427 507.4Z" fill="url(#paint1_linear_284_598)"/>
<path fill-rule="evenodd" clip-rule="evenodd" d="M139.129 26.2621C190.644 26.2621 271.311 150.787 264.897 266.613C258.483 382.438 205.233 552.582 205.233 552.582L139.23 553.238L73.252 552.582C73.252 552.582 20.1026 382.438 13.5627 266.613C7.02279 150.787 87.9668 26.2621 139.129 26.2621Z" fill="url(#paint2_radial_284_598)"/>
<path fill-rule="evenodd" clip-rule="evenodd" d="M205.131 552.582C205.131 552.582 129.998 545.899 73.1507 552.582C73.1507 552.582 146.851 559.895 205.131 552.582Z" fill="#31165F"/>
<path fill-rule="evenodd" clip-rule="evenodd" d="M208.326 78.6894C208.326 78.6894 135.381 55.5143 65.9322 84.7416C65.9322 84.7416 101.751 26.7409 139.129 26.2618C172.86 26.0852 208.326 78.6894 208.326 78.6894Z" fill="url(#paint3_radial_284_598)"/>
<path d="M66.1584 85.3213C130.728 57.3798 207.395 79.042 208.075 79.2942L208.427 78.0837C207.672 77.882 130.451 56.0432 65.605 84.1613L66.1584 85.3213Z" fill="#53345F"/>
<path fill-rule="evenodd" clip-rule="evenodd" d="M156.46 30.3725L117.874 32.3142C117.874 32.3142 137.444 18.3183 156.46 30.3725Z" fill="#53345F"/>
<path fill-rule="evenodd" clip-rule="evenodd" d="M151.102 28.6073C143.923 27.4501 136.622 27.2635 129.394 28.0526C129.394 28.0526 133.645 9.54259 140.16 8.91214C146.675 8.28169 151.102 28.6073 151.102 28.6073Z" fill="url(#paint4_linear_284_598)"/>
<path style="mix-blend-mode:multiply" opacity="0.5" fill-rule="evenodd" clip-rule="evenodd" d="M235.744 440.136C235.744 440.136 124.414 403.52 40.1498 429.242C51.1167 477.635 73.2518 552.582 73.2518 552.582C73.2518 552.582 123.559 545.496 205.232 552.582C205.132 552.582 225.682 496.725 235.744 440.136Z" fill="url(#paint5_radial_284_598)"/>
<path style="mix-blend-mode:multiply" opacity="0.5" fill-rule="evenodd" clip-rule="evenodd" d="M143.43 109.985C189.914 113.616 223.016 169.196 225.154 217.74C227.292 266.285 183.097 295.916 135.985 294.478C88.8722 293.041 49.8339 260.611 55.2168 207.502C60.0966 159.513 91.8403 105.975 143.43 109.985Z" fill="url(#paint6_radial_284_598)"/>
<path fill-rule="evenodd" clip-rule="evenodd" d="M143.43 102.294C189.914 105.925 223.016 161.48 225.154 209.948C227.292 258.417 183.097 288.124 135.985 286.686C88.8722 285.249 49.8339 252.844 55.2168 199.786C60.0966 151.796 91.8403 98.259 143.43 102.294Z" fill="#31165F"/>
<path fill-rule="evenodd" clip-rule="evenodd" d="M143.43 96.8965C189.914 100.528 223.016 156.108 225.154 204.576C227.292 253.045 183.097 282.752 135.985 281.314C88.8721 279.877 49.8338 247.472 55.2167 194.388C60.0964 146.424 91.8402 92.8869 143.43 96.8965Z" fill="url(#paint7_radial_284_598)"/>
<path fill-rule="evenodd" clip-rule="evenodd" d="M140.361 114.121C182.015 116.643 202.893 160.32 204.553 198.172C206.213 236.023 171.526 259.123 134.5 258.089C97.4743 257.055 66.8121 231.686 71.0379 190.253C74.7606 152.78 96.8454 111.448 140.361 114.121Z" fill="#A6345F"/>
<path fill-rule="evenodd" clip-rule="evenodd" d="M95.5126 244.497C106.923 252.691 120.566 257.18 134.601 257.358C169.816 258.342 206.062 234.107 204.478 198.096C203.952 185.79 201.146 173.69 196.202 162.413C186.493 140.297 167.829 122.62 140.16 120.4C99.4114 117.122 77.9303 157.218 74.283 192.851C71.9438 215.749 80.7978 233.477 95.5126 244.497Z" fill="url(#paint8_linear_284_598)"/>
<path d="M135.708 286.686H136.966L136.966 421.273H135.708L135.708 286.686Z" fill="#53345F"/>
<path d="M235.467 440.741L235.744 439.656C108.316 402.637 40.4013 428.535 39.7222 428.788L40.2001 429.973C40.9295 429.569 108.492 403.872 235.467 440.741Z" fill="#53345F"/>
<path d="M245.427 395.829L246.106 394.77C245.729 394.517 206.313 368.846 136.362 365.063V366.324C205.886 370.081 245.05 395.577 245.427 395.829Z" fill="#53345F"/>
<path fill-rule="evenodd" clip-rule="evenodd" d="M120.968 518.109L122.829 460.033L106.982 455.998L108.542 518.109H120.968Z" fill="#31165F"/>
<path fill-rule="evenodd" clip-rule="evenodd" d="M194.215 553.767C156.462 550.511 118.509 550.301 80.7223 553.137L84.118 579.187L191.046 576.312L194.215 553.767Z" fill="url(#paint9_radial_284_598)"/>
<path opacity="0.5" fill-rule="evenodd" clip-rule="evenodd" d="M192.605 565.216C178.575 558.338 163.121 554.882 147.505 555.129C121.773 555.684 83.3385 573.135 83.3385 573.135L80.8231 553.137C80.8231 553.137 142.047 547.161 194.316 553.667L192.605 565.216Z" fill="#31165F"/>
<path d="M114.704 136.313C107.176 143.841 100.931 152.556 96.2165 162.11L87.3373 156.916C87.3373 156.916 94.1539 140.322 106.982 134.522L114.704 136.313Z" fill="white"/>
<path d="M191.599 209.923L184.204 222.986L191.599 227.374L196.906 216.454L191.599 209.923Z" fill="white"/>
<path style="mix-blend-mode:multiply" opacity="0.5" fill-rule="evenodd" clip-rule="evenodd" d="M223.167 102.218C223.167 102.218 150.222 64.3913 55.1161 102.067L65.8315 84.7421C65.8315 84.7421 120.817 58.8686 208.326 78.6898L223.167 102.218Z" fill="url(#paint10_radial_284_598)"/>
<path d="M143.858 378.554C141.579 378.554 139.732 376.702 139.732 374.418C139.732 372.134 141.579 370.283 143.858 370.283C146.136 370.283 147.983 372.134 147.983 374.418C147.983 376.702 146.136 378.554 143.858 378.554Z" fill="url(#paint11_linear_284_598)"/>
<path fill-rule="evenodd" clip-rule="evenodd" d="M140.588 374.419C140.583 375.068 140.77 375.704 141.126 376.247C141.483 376.789 141.992 377.213 142.589 377.465C143.186 377.717 143.844 377.786 144.48 377.662C145.116 377.539 145.701 377.228 146.161 376.771C146.621 376.313 146.935 375.729 147.063 375.093C147.191 374.456 147.128 373.796 146.881 373.195C146.634 372.595 146.215 372.081 145.677 371.72C145.139 371.358 144.505 371.166 143.858 371.166C142.995 371.166 142.167 371.507 141.554 372.117C140.942 372.726 140.594 373.554 140.588 374.419Z" fill="url(#paint12_radial_284_598)"/>
<path d="M143.858 358.128C141.579 358.128 139.732 356.276 139.732 353.992C139.732 351.708 141.579 349.856 143.858 349.856C146.136 349.856 147.983 351.708 147.983 353.992C147.983 356.276 146.136 358.128 143.858 358.128Z" fill="url(#paint13_linear_284_598)"/>
<path fill-rule="evenodd" clip-rule="evenodd" d="M140.588 353.917C140.588 354.565 140.779 355.199 141.139 355.738C141.498 356.277 142.009 356.697 142.606 356.945C143.204 357.194 143.861 357.258 144.495 357.132C145.13 357.005 145.712 356.693 146.17 356.235C146.627 355.776 146.938 355.192 147.065 354.556C147.191 353.92 147.126 353.261 146.879 352.662C146.631 352.063 146.212 351.551 145.674 351.191C145.136 350.831 144.504 350.638 143.857 350.638C142.99 350.638 142.159 350.984 141.545 351.599C140.932 352.213 140.588 353.047 140.588 353.917Z" fill="url(#paint14_radial_284_598)"/>
<path fill-rule="evenodd" clip-rule="evenodd" d="M207.723 214.74C207.718 215.565 207.957 216.373 208.412 217.061C208.866 217.749 209.514 218.287 210.273 218.605C211.032 218.923 211.869 219.007 212.676 218.848C213.484 218.688 214.226 218.291 214.808 217.708C215.39 217.124 215.785 216.38 215.945 215.571C216.104 214.761 216.02 213.923 215.702 213.161C215.385 212.4 214.849 211.75 214.163 211.295C213.477 210.84 212.671 210.599 211.848 210.604C210.756 210.611 209.71 211.049 208.938 211.823C208.166 212.597 207.729 213.645 207.723 214.74Z" fill="#31165F"/>
<path fill-rule="evenodd" clip-rule="evenodd" d="M208.603 214.739C208.598 215.39 208.786 216.027 209.143 216.57C209.5 217.113 210.011 217.537 210.609 217.788C211.208 218.04 211.868 218.107 212.504 217.981C213.141 217.855 213.726 217.543 214.185 217.083C214.643 216.623 214.955 216.036 215.081 215.398C215.206 214.76 215.139 214.098 214.889 213.498C214.638 212.898 214.215 212.387 213.673 212.028C213.132 211.67 212.496 211.481 211.847 211.486C210.989 211.493 210.167 211.838 209.56 212.446C208.953 213.055 208.609 213.879 208.603 214.739Z" fill="url(#paint15_radial_284_598)"/>
<path d="M204.603 160.269C202.325 160.269 200.478 158.418 200.478 156.133C200.478 153.849 202.325 151.998 204.603 151.998C206.882 151.998 208.729 153.849 208.729 156.133C208.729 158.418 206.882 160.269 204.603 160.269Z" fill="#31165F"/>
<path fill-rule="evenodd" clip-rule="evenodd" d="M201.359 156.134C201.354 156.784 201.542 157.421 201.899 157.964C202.257 158.507 202.767 158.931 203.366 159.183C203.964 159.434 204.624 159.501 205.26 159.375C205.897 159.25 206.482 158.937 206.941 158.477C207.4 158.017 207.712 157.43 207.837 156.792C207.962 156.154 207.895 155.493 207.645 154.893C207.394 154.293 206.971 153.781 206.43 153.422C205.888 153.064 205.252 152.876 204.604 152.88C203.743 152.88 202.918 153.223 202.309 153.833C201.701 154.443 201.359 155.271 201.359 156.134Z" fill="url(#paint16_radial_284_598)"/>
<path fill-rule="evenodd" clip-rule="evenodd" d="M169.061 261.039C169.056 261.864 169.296 262.672 169.75 263.36C170.204 264.049 170.852 264.586 171.612 264.904C172.371 265.222 173.208 265.306 174.015 265.147C174.822 264.987 175.564 264.59 176.146 264.007C176.728 263.423 177.124 262.679 177.283 261.87C177.443 261.061 177.358 260.222 177.041 259.46C176.724 258.699 176.188 258.05 175.502 257.594C174.815 257.139 174.009 256.899 173.186 256.904C172.094 256.91 171.049 257.348 170.277 258.122C169.505 258.896 169.068 259.944 169.061 261.039Z" fill="#31165F"/>
<path fill-rule="evenodd" clip-rule="evenodd" d="M169.942 261.039C169.942 261.689 170.134 262.324 170.495 262.863C170.855 263.403 171.367 263.823 171.966 264.07C172.565 264.318 173.224 264.381 173.859 264.253C174.494 264.124 175.077 263.809 175.533 263.348C175.989 262.887 176.299 262.301 176.422 261.663C176.545 261.026 176.477 260.366 176.225 259.767C175.974 259.169 175.551 258.658 175.01 258.301C174.469 257.944 173.834 257.756 173.187 257.761C172.758 257.761 172.334 257.846 171.939 258.011C171.544 258.176 171.185 258.418 170.883 258.723C170.582 259.028 170.343 259.389 170.182 259.787C170.02 260.184 169.938 260.61 169.942 261.039Z" fill="url(#paint17_radial_284_598)"/>
<path fill-rule="evenodd" clip-rule="evenodd" d="M105.096 266.008C105.091 266.833 105.331 267.641 105.785 268.329C106.239 269.017 106.887 269.554 107.647 269.872C108.406 270.19 109.243 270.275 110.05 270.115C110.857 269.955 111.599 269.558 112.181 268.975C112.763 268.391 113.159 267.648 113.318 266.838C113.478 266.029 113.393 265.19 113.076 264.429C112.759 263.667 112.223 263.018 111.537 262.563C110.85 262.107 110.044 261.867 109.221 261.872C108.129 261.878 107.084 262.316 106.312 263.09C105.539 263.865 105.103 264.913 105.096 266.008Z" fill="#31165F"/>
<path fill-rule="evenodd" clip-rule="evenodd" d="M105.976 266.007C105.971 266.658 106.16 267.295 106.517 267.838C106.874 268.381 107.385 268.805 107.983 269.056C108.582 269.308 109.241 269.375 109.878 269.249C110.515 269.123 111.1 268.81 111.558 268.35C112.017 267.89 112.329 267.304 112.455 266.666C112.58 266.027 112.513 265.366 112.263 264.766C112.012 264.166 111.589 263.654 111.047 263.296C110.506 262.938 109.87 262.749 109.221 262.754C108.363 262.761 107.541 263.106 106.934 263.714C106.327 264.323 105.983 265.146 105.976 266.007Z" fill="url(#paint18_radial_284_598)"/>
<path fill-rule="evenodd" clip-rule="evenodd" d="M61.7819 227.374C61.7769 228.198 62.0161 229.005 62.4691 229.693C62.9221 230.38 63.5686 230.917 64.3265 231.236C65.0844 231.555 65.9197 231.641 66.7264 231.483C67.5332 231.326 68.275 230.931 68.858 230.35C69.4409 229.769 69.8387 229.028 70.0009 228.22C70.1631 227.412 70.0824 226.575 69.769 225.813C69.4556 225.051 68.9237 224.4 68.2407 223.941C67.5576 223.483 66.7542 223.238 65.9322 223.238C64.8359 223.238 63.784 223.673 63.0064 224.448C62.2288 225.223 61.7886 226.275 61.7819 227.374Z" fill="#31165F"/>
<path fill-rule="evenodd" clip-rule="evenodd" d="M62.662 227.374C62.662 228.022 62.8538 228.656 63.2131 229.195C63.5724 229.734 64.0831 230.155 64.6806 230.403C65.2781 230.651 65.9356 230.716 66.5699 230.589C67.2042 230.463 67.7868 230.151 68.2442 229.692C68.7015 229.234 69.0129 228.649 69.1391 228.013C69.2652 227.378 69.2005 226.718 68.953 226.119C68.7055 225.52 68.2864 225.008 67.7486 224.648C67.2109 224.288 66.5787 224.096 65.9319 224.096C65.0647 224.096 64.233 224.441 63.6197 225.056C63.0065 225.671 62.662 226.504 62.662 227.374Z" fill="url(#paint19_radial_284_598)"/>
<path fill-rule="evenodd" clip-rule="evenodd" d="M68.422 153.99C68.422 154.808 68.664 155.607 69.1173 156.287C69.5705 156.968 70.2148 157.498 70.9686 157.811C71.7223 158.124 72.5518 158.206 73.352 158.046C74.1522 157.887 74.8872 157.493 75.4641 156.914C76.041 156.336 76.4339 155.599 76.5931 154.797C76.7523 153.994 76.6706 153.163 76.3584 152.407C76.0461 151.651 75.5174 151.005 74.839 150.551C74.1606 150.097 73.3631 149.854 72.5472 149.854C71.4531 149.854 70.4039 150.29 69.6303 151.065C68.8566 151.841 68.422 152.893 68.422 153.99Z" fill="#31165F"/>
<path fill-rule="evenodd" clip-rule="evenodd" d="M69.3028 153.99C69.3078 154.633 69.5023 155.259 69.8619 155.791C70.2214 156.322 70.7299 156.735 71.3232 156.978C71.9166 157.22 72.5682 157.281 73.1959 157.153C73.8237 157.024 74.3995 156.712 74.8508 156.256C75.3021 155.801 75.6086 155.221 75.7318 154.59C75.855 153.96 75.7893 153.307 75.543 152.714C75.2967 152.121 74.8808 151.615 74.3477 151.258C73.8147 150.902 73.1883 150.712 72.5476 150.712C72.1194 150.712 71.6954 150.797 71.3001 150.962C70.9047 151.127 70.5459 151.369 70.2443 151.674C69.9426 151.978 69.7041 152.34 69.5426 152.738C69.381 153.135 69.2995 153.561 69.3028 153.99Z" fill="url(#paint20_radial_284_598)"/>
<path d="M105.096 120.274C102.818 120.274 100.971 118.422 100.971 116.138C100.971 113.854 102.818 112.002 105.096 112.002C107.374 112.002 109.221 113.854 109.221 116.138C109.221 118.422 107.374 120.274 105.096 120.274Z" fill="#31165F"/>
<path fill-rule="evenodd" clip-rule="evenodd" d="M101.851 116.138C101.851 116.782 102.041 117.411 102.398 117.946C102.754 118.481 103.261 118.898 103.854 119.144C104.447 119.39 105.099 119.454 105.729 119.329C106.358 119.203 106.936 118.893 107.39 118.439C107.844 117.984 108.153 117.404 108.278 116.773C108.403 116.142 108.339 115.488 108.094 114.893C107.848 114.299 107.432 113.791 106.898 113.433C106.365 113.076 105.738 112.885 105.096 112.885C104.237 112.892 103.416 113.237 102.809 113.845C102.202 114.454 101.858 115.278 101.851 116.138Z" fill="url(#paint21_radial_284_598)"/>
<path d="M159.906 114.347C157.627 114.347 155.78 112.496 155.78 110.212C155.78 107.928 157.627 106.076 159.906 106.076C162.184 106.076 164.031 107.928 164.031 110.212C164.031 112.496 162.184 114.347 159.906 114.347Z" fill="#31165F"/>
<path fill-rule="evenodd" clip-rule="evenodd" d="M156.661 110.212C156.661 110.855 156.851 111.484 157.208 112.019C157.564 112.554 158.071 112.971 158.664 113.217C159.257 113.464 159.909 113.528 160.539 113.403C161.168 113.277 161.746 112.967 162.2 112.512C162.654 112.057 162.963 111.478 163.088 110.847C163.213 110.216 163.149 109.562 162.904 108.967C162.658 108.373 162.242 107.865 161.709 107.507C161.175 107.15 160.548 106.959 159.906 106.959C159.045 106.959 158.22 107.302 157.611 107.912C157.003 108.522 156.661 109.349 156.661 110.212Z" fill="url(#paint22_radial_284_598)"/>
<path fill-rule="evenodd" clip-rule="evenodd" d="M225.531 607.052H222.488L225.531 495.816L228.55 495.943L225.531 607.052Z" fill="#6F2561"/>
<path fill-rule="evenodd" clip-rule="evenodd" d="M50.4626 495.943L53.481 495.817L55.5184 607.053H53.481L50.4626 495.943Z" fill="#6F2561"/>
<path fill-rule="evenodd" clip-rule="evenodd" d="M110.303 432.47H99.4365L110.303 607.053H117.874L110.303 432.47Z" fill="url(#paint23_linear_284_598)"/>
<path fill-rule="evenodd" clip-rule="evenodd" d="M110.303 432.47L117.874 471.104L117.874 607.053L110.303 432.47Z" fill="#FF4C61"/>
<path opacity="0.5" fill-rule="evenodd" clip-rule="evenodd" d="M99.7634 437.842L73.151 552.582L99.4364 551.145L99.7634 578.859H108.542L99.7634 437.842Z" fill="#31165F"/>
<path d="M231.543 135.556C231.543 135.556 232.624 123.552 225.028 116.138L218.84 116.441C221.715 122.978 224.93 129.358 228.474 135.556H231.543Z" fill="white"/>
<g style="mix-blend-mode:soft-light">
<path d="M40.0493 399.788L28.6799 347.864H25.4854L36.3014 399.788H40.0493Z" fill="white"/>
</g>
<path fill-rule="evenodd" clip-rule="evenodd" d="M26.9691 167.456C26.9691 167.456 7.75181 163.446 21.7623 186.067L26.9691 167.456Z" fill="url(#paint24_linear_284_598)"/>
<path fill-rule="evenodd" clip-rule="evenodd" d="M250.66 164.783C250.66 164.783 268.443 170.154 255.866 182.713L250.66 164.783Z" fill="url(#paint25_linear_284_598)"/>
<g style="mix-blend-mode:soft-light" opacity="0.5">
<path fill-rule="evenodd" clip-rule="evenodd" d="M186.493 550.615C186.493 550.615 236.096 396.787 255.514 282.071L260.344 284.467C260.344 284.467 237.026 460.613 202.49 552.355L186.493 550.615Z" fill="white"/>
</g>
<g style="mix-blend-mode:soft-light">
<path fill-rule="evenodd" clip-rule="evenodd" d="M26.9193 336.062L21.2095 304.061H18.191L23.9009 336.062H26.9193Z" fill="white"/>
</g>
<g style="mix-blend-mode:soft-light">
<path fill-rule="evenodd" clip-rule="evenodd" d="M227.065 388.036C227.065 388.036 194.19 373.309 162.848 370.384C162.798 370.283 194.064 377.268 227.065 388.036Z" fill="white"/>
</g>
<g style="mix-blend-mode:soft-light">
<path fill-rule="evenodd" clip-rule="evenodd" d="M134.802 299.245L134.022 417.214C134.022 417.214 131.96 374.419 134.802 299.245Z" fill="white"/>
</g>
<g style="mix-blend-mode:soft-light">
<path fill-rule="evenodd" clip-rule="evenodd" d="M211.848 435.244C211.848 435.244 133.52 412.17 58.4112 426.973C58.4112 427.048 114.101 413.279 211.848 435.244Z" fill="white"/>
</g>
<path fill-rule="evenodd" clip-rule="evenodd" d="M194.366 125.469C194.366 125.469 183.676 129.781 177.438 109.783C183.695 114.303 189.379 119.571 194.366 125.469Z" fill="white"/>
<g style="mix-blend-mode:soft-light">
<path fill-rule="evenodd" clip-rule="evenodd" d="M126.627 280.634C126.627 280.634 100.996 279.272 70.6609 251.406C70.6609 251.406 88.8468 276.826 126.627 280.634Z" fill="white"/>
</g>
<g style="mix-blend-mode:soft-light">
<path fill-rule="evenodd" clip-rule="evenodd" d="M136.337 258.089C136.337 258.089 113.95 270.143 98.6065 248.002C98.6317 248.002 110.529 258.719 136.337 258.089Z" fill="white"/>
</g>
<g style="mix-blend-mode:soft-light" opacity="0.36">
<path fill-rule="evenodd" clip-rule="evenodd" d="M140.688 308.524C142.021 309.432 144.562 310.693 144.134 312.736C143.933 313.669 143.38 314.476 143.103 315.384C142.833 316.2 142.664 317.047 142.6 317.905C142.447 319.272 141.925 320.571 141.091 321.663C140.462 322.318 139.833 321.663 139.405 321.007C138.896 320.366 138.566 319.6 138.45 318.788C138.438 317.71 138.311 316.636 138.072 315.585C138.072 315.182 137.67 314.829 137.569 314.4C137.507 313.813 137.507 313.221 137.569 312.635C137.596 311.709 137.912 310.815 138.471 310.078C139.03 309.341 139.806 308.797 140.688 308.524Z" fill="white"/>
<path fill-rule="evenodd" clip-rule="evenodd" d="M146.096 325.521C146.181 325.285 146.197 325.029 146.144 324.784C146.09 324.539 145.969 324.313 145.794 324.134C143.807 324.134 143.103 328.119 144.964 328.875C146.825 329.632 147.479 326.807 146.725 325.521H146.096Z" fill="white"/>
<path fill-rule="evenodd" clip-rule="evenodd" d="M182.619 350.688C181.588 350.184 180.732 349.478 179.575 349.755C178.589 349.973 177.704 350.514 177.06 351.294C176.341 352.251 175.835 353.352 175.576 354.522C175.313 355.052 175.216 355.65 175.299 356.236C175.773 357.38 176.507 358.397 177.441 359.207C178.375 360.016 179.485 360.597 180.682 360.902C181.859 361.348 183.083 361.661 184.329 361.835C185.21 361.835 186.09 362.036 186.845 362.188C187.541 362.421 188.279 362.498 189.008 362.415C189.621 362.196 190.191 361.872 190.693 361.456C191.395 360.965 191.964 360.307 192.351 359.542C192.737 358.776 192.928 357.926 192.907 357.069C192.907 354.017 189.159 351.596 186.694 350.361C184.883 349.327 181.663 348.066 182.619 350.688Z" fill="white"/>
<path fill-rule="evenodd" clip-rule="evenodd" d="M173.086 346.528C173.388 347.41 173.639 347.663 172.935 348.142C172.673 348.301 172.378 348.398 172.072 348.424C171.767 348.451 171.459 348.406 171.174 348.293C170.118 347.94 168.785 346.326 169.564 345.242C169.967 344.687 170.923 343.703 171.577 343.628C172.307 343.708 172.985 344.042 173.495 344.572C174.005 345.102 174.314 345.794 174.369 346.528H173.086Z" fill="white"/>
<path fill-rule="evenodd" clip-rule="evenodd" d="M133.368 376.309C133.513 376.757 133.572 377.227 133.544 377.696C133.544 378.881 133.544 380.067 133.544 381.252C133.544 383.496 133.871 385.716 133.871 387.96C133.842 389.577 133.674 391.188 133.368 392.777C133.368 393.583 133.066 394.466 132.89 395.298C132.689 395.298 132.664 394.819 132.588 394.643C132.312 394.012 132.136 393.331 131.809 392.751C131.079 391.415 130.35 390.028 129.746 388.641C129.654 388.369 129.536 388.107 129.394 387.859C129.162 387.564 128.91 387.286 128.639 387.027C128.196 386.54 127.831 385.987 127.558 385.388C127.054 383.914 126.874 382.348 127.029 380.798C127.029 380.294 127.205 379.815 127.205 379.285C127.205 378.755 127.205 378.226 127.205 377.671C127.432 376.501 127.884 375.387 128.539 374.393C129.218 373.207 129.997 371.14 131.507 370.812C132.261 370.635 132.538 371.467 132.639 372.073C132.739 372.678 132.789 373.611 132.89 374.368C132.991 375.124 133.469 376.612 133.368 376.309Z" fill="white"/>
<path fill-rule="evenodd" clip-rule="evenodd" d="M131.784 365.819C131.457 365.239 131.004 364.205 130.149 364.382C129.293 364.558 129.293 365.769 129.394 366.424C129.62 367.963 131.608 366.424 131.482 365.34L131.784 365.819Z" fill="white"/>
<path fill-rule="evenodd" clip-rule="evenodd" d="M116.692 375.528C117.03 376.069 117.172 376.71 117.094 377.344C117.015 377.762 116.782 378.136 116.443 378.393C116.104 378.649 115.681 378.77 115.258 378.731C113.849 378.731 112.893 378.403 112.592 376.965C112.558 376.437 112.637 375.907 112.824 375.411C113.01 374.916 113.3 374.465 113.673 374.091C113.989 373.796 114.399 373.626 114.83 373.611C115.711 373.611 116.113 374.217 116.541 374.898L116.692 375.528Z" fill="white"/>
<path fill-rule="evenodd" clip-rule="evenodd" d="M84.8221 419.962C82.7216 418.868 80.5017 418.022 78.2068 417.44C76.1945 417.037 74.1319 417.239 72.0945 417.037C69.2582 416.611 66.4581 415.97 63.7183 415.12C61.3362 414.395 58.8105 414.282 56.3735 414.793C55.3749 415.005 54.4317 415.424 53.6043 416.023C52.7769 416.623 52.0837 417.389 51.5692 418.273C51.0255 419.39 50.6767 420.593 50.5379 421.828C50.5379 422.408 50.5379 422.963 50.3618 423.518C50.2645 423.855 50.2055 424.202 50.1857 424.552C50.1857 425.107 50.4121 425.107 50.9403 425.107C51.8228 425.153 52.6988 424.933 53.4557 424.476C54.8457 423.743 56.3521 423.256 57.9079 423.039C59.3919 422.787 60.8257 422.434 62.3097 422.257L66.7367 421.702L70.5349 421.122C71.7675 420.946 73.0503 420.946 74.308 420.845C75.5656 420.744 76.3957 420.845 77.4522 420.845C78.0972 420.807 78.7439 420.807 79.389 420.845C79.8997 420.883 80.4126 420.883 80.9233 420.845C81.4173 420.807 81.9134 420.807 82.4074 420.845C83.2425 420.641 84.0523 420.345 84.8221 419.962Z" fill="white"/>
<path fill-rule="evenodd" clip-rule="evenodd" d="M71.4154 410.732C71.7424 410.985 72.17 411.237 72.2455 411.64C72.283 411.857 72.283 412.079 72.2455 412.296C72.0191 413.229 70.4596 413.279 69.7301 413.305C67.4887 413.378 65.3034 412.594 63.6178 411.111C63.0526 410.59 62.6136 409.947 62.3346 409.23C62.0556 408.513 61.9439 407.742 62.008 406.975C62.3414 406.041 62.9273 405.219 63.7003 404.6C64.4732 403.981 65.4027 403.589 66.3847 403.47C67.2908 403.173 68.2548 403.098 69.1958 403.251C70.1368 403.405 71.0274 403.782 71.7927 404.352C72.3041 404.813 72.6416 405.437 72.7485 406.118C72.7257 406.634 72.6669 407.148 72.5725 407.656C72.5725 408.362 72.9246 408.992 72.5725 409.673C72.3091 410.141 71.9037 410.512 71.4154 410.732Z" fill="white"/>
<path fill-rule="evenodd" clip-rule="evenodd" d="M58.7127 410.884C58.7841 410.692 58.7958 410.484 58.7464 410.286C58.697 410.088 58.5888 409.909 58.436 409.774C58.3096 409.56 58.1069 409.402 57.8689 409.332C57.6308 409.262 57.3751 409.285 57.1532 409.396C56.9572 409.442 56.7736 409.531 56.6154 409.656C56.4571 409.781 56.328 409.939 56.237 410.119C56.1459 410.299 56.0952 410.497 56.0884 410.699C56.0816 410.9 56.1188 411.101 56.1974 411.287C56.3445 411.523 56.5481 411.718 56.7898 411.855C57.0315 411.991 57.3034 412.065 57.5808 412.069C57.8787 412.086 58.1734 412 58.4158 411.825C58.6583 411.651 58.8341 411.399 58.9139 411.111L58.7127 410.884Z" fill="white"/>
<path fill-rule="evenodd" clip-rule="evenodd" d="M42.3378 364.684C43.0352 364.898 43.6274 365.366 43.9979 365.996C44.1031 366.162 44.1589 366.354 44.1589 366.551C44.1589 366.747 44.1031 366.94 43.9979 367.105C43.3731 368.272 42.3442 369.169 41.1052 369.627C40.6943 369.767 40.2593 369.821 39.8268 369.786C39.3944 369.751 38.9735 369.628 38.5899 369.425C37.9455 368.96 37.3842 368.389 36.9298 367.736C36.4831 367.229 36.0633 366.698 35.6721 366.147C35.2646 365.744 34.9962 365.22 34.9057 364.654C34.8152 364.087 34.9075 363.506 35.169 362.995C35.5061 362.474 35.9684 362.046 36.5134 361.751C37.0584 361.456 37.6686 361.302 38.288 361.305C39.1231 361.39 39.9254 361.676 40.6273 362.137C41.4825 362.566 42.0611 362.818 42.3378 364.684Z" fill="white"/>
<path fill-rule="evenodd" clip-rule="evenodd" d="M46.6392 369.476C45.999 369.515 45.3738 369.687 44.8029 369.98C44.8029 370.258 44.476 370.409 44.6017 370.762C44.7275 371.115 45.5576 371.09 45.9349 371.065C46.4076 371.04 46.855 370.843 47.1925 370.51C47.1925 370.384 47.8465 369.829 47.4189 369.779L46.6392 369.476Z" fill="white"/>
<path fill-rule="evenodd" clip-rule="evenodd" d="M103.989 406.874C104.392 407.605 104.819 408.412 104.14 409.194C103.76 409.484 103.304 409.66 102.827 409.7C102.351 409.74 101.873 409.643 101.449 409.421C101.021 409.219 100.543 409.017 100.493 408.538C100.443 408.059 100.493 407.479 100.493 407C100.493 405.789 99.2604 404.932 100.342 403.797C100.606 403.531 100.926 403.327 101.278 403.201C101.631 403.074 102.007 403.028 102.379 403.066C103.587 403.293 104.191 404.554 104.618 405.588L103.989 406.874Z" fill="white"/>
<path fill-rule="evenodd" clip-rule="evenodd" d="M200.252 450.853C201.597 451.161 202.832 451.833 203.823 452.795V453.35C204.022 453.785 204.125 454.258 204.125 454.737C204.125 455.216 204.022 455.689 203.823 456.124C202.415 458.847 199.572 458.52 197.007 458.494C194.441 458.469 190.769 458.797 191.976 454.989C192.409 452.841 193.448 450.863 194.969 449.29C195.825 448.71 196.252 448.987 197.082 449.29C198.248 449.614 199.347 450.143 200.327 450.853H200.252Z" fill="white"/>
<path fill-rule="evenodd" clip-rule="evenodd" d="M168.81 455.166C168.382 454.409 167.753 452.972 166.697 452.846C165.64 452.719 165.514 453.274 164.886 453.728C163.477 454.712 162.169 456.023 163.527 457.814C163.925 458.23 164.414 458.549 164.955 458.746C165.496 458.943 166.074 459.012 166.646 458.948C167.577 458.797 169.162 457.687 168.81 456.603V455.166Z" fill="white"/>
<path fill-rule="evenodd" clip-rule="evenodd" d="M37.2568 214.336C37.7271 214.944 38.0246 215.668 38.1176 216.432C38.2106 217.196 38.0957 217.97 37.785 218.674C37.5214 220.346 36.8567 221.93 35.8482 223.289C34.2635 224.953 32.1003 224.549 30.1132 224.978C29.4815 225.222 28.7963 225.292 28.1285 225.181C27.4608 225.07 26.8347 224.783 26.315 224.348C24.9387 223.21 23.7869 221.825 22.9193 220.262C21.6635 217.707 20.977 214.908 20.9075 212.061C20.8381 209.213 21.3872 206.384 22.5169 203.77C23.9255 200.567 26.0383 196.936 29.6353 195.927C31.1337 195.463 32.7303 195.42 34.2514 195.803C35.7726 196.185 37.16 196.978 38.2629 198.096C39.2783 199.294 39.9949 200.717 40.3535 202.247C40.7122 203.777 40.7026 205.371 40.3255 206.897L39.7218 209.066C39.634 210.005 39.634 210.951 39.7218 211.89C39.5458 212.899 39.0175 213.807 37.2568 214.336Z" fill="white"/>
<path fill-rule="evenodd" clip-rule="evenodd" d="M42.9922 222.456C40.9799 224.045 41.2818 223.793 40.9799 225.81C40.9799 226.693 40.502 226.895 40.6781 227.727C40.8997 228.296 41.2867 228.785 41.789 229.132C42.2913 229.478 42.8857 229.665 43.4953 229.668C44.3253 229.668 45.6333 228.004 46.0106 227.348C46.2375 226.96 46.3443 226.514 46.3175 226.065C46.2906 225.616 46.1313 225.185 45.8597 224.827L42.9922 222.456Z" fill="white"/>
<path fill-rule="evenodd" clip-rule="evenodd" d="M243.616 221.977C244.044 223.717 244.623 225.785 242.711 227.021C241.952 227.283 241.136 227.333 240.352 227.164C239.567 226.995 238.843 226.614 238.259 226.063C236.386 224.353 235.1 222.094 234.586 219.607C234.31 217.388 236.951 215.017 238.988 214.765C243.088 214.261 245.302 220.817 245.528 223.894L243.616 221.977Z" fill="white"/>
<path fill-rule="evenodd" clip-rule="evenodd" d="M246.484 241.092C246.71 240.613 247.716 239.2 247.54 238.57C247.364 237.94 247.138 238.217 246.987 237.99C246.797 237.569 246.516 237.197 246.163 236.9C245.811 236.603 245.396 236.389 244.95 236.275C244.04 236.06 243.085 236.156 242.237 236.549C241.388 236.943 240.696 237.61 240.271 238.444C239.9 238.942 239.726 239.56 239.782 240.179C239.837 240.798 240.119 241.374 240.573 241.798C241.147 242.406 241.932 242.769 242.766 242.811C243.6 242.853 244.418 242.572 245.05 242.025L246.484 241.092Z" fill="white"/>
<path fill-rule="evenodd" clip-rule="evenodd" d="M63.9448 462.807C65.1627 465.775 65.3748 469.062 64.5485 472.163C64.1712 474.205 63.8693 476.878 61.7061 477.786C56.6754 479.905 52.7012 468.935 51.6447 465.455C50.7873 462.413 50.5901 459.223 51.0662 456.099C51.4708 453.624 52.7361 451.373 54.638 449.744C55.7698 449.31 57.0163 449.281 58.1668 449.663C59.3173 450.044 60.301 450.812 60.9515 451.837C64.1712 456.049 63.4669 461.445 64.8503 466.236L63.9448 462.807Z" fill="white"/>
<path fill-rule="evenodd" clip-rule="evenodd" d="M66.5855 462.075C67.826 462.163 69.0467 462.435 70.2076 462.882C70.7862 463.26 71.6665 463.84 71.8426 464.521C71.8911 464.999 71.8172 465.481 71.6279 465.923C71.4387 466.364 71.1403 466.749 70.761 467.043C70.529 467.279 70.2419 467.454 69.9256 467.551C69.6094 467.647 69.274 467.664 68.95 467.598C68.4972 467.421 68.1199 466.766 67.818 466.362C67.3186 465.639 66.9049 464.861 66.5855 464.042C66.368 463.67 66.1989 463.272 66.0825 462.857C66.0825 462.176 66.4094 461.949 66.5855 461.419V462.075Z" fill="white"/>
<path fill-rule="evenodd" clip-rule="evenodd" d="M69.4282 488.857L67.7178 489.639C67.7178 490.32 67.5669 491.101 68.2209 491.555C68.9241 491.783 69.6809 491.783 70.3841 491.555C70.7358 491.451 71.0441 491.235 71.262 490.939C71.4799 490.643 71.5955 490.284 71.5914 489.916C71.5914 489.008 70.7362 488.63 69.9062 488.479L69.4282 488.857Z" fill="white"/>
<path fill-rule="evenodd" clip-rule="evenodd" d="M148.536 524.918C148.724 525.264 148.796 525.662 148.742 526.052C148.687 526.443 148.51 526.805 148.234 527.087C147.813 527.591 147.211 527.911 146.558 527.977C145.904 528.043 145.251 527.85 144.738 527.44C143.853 526.763 143.144 525.883 142.671 524.873C142.198 523.863 141.975 522.754 142.021 521.64C142.298 520.354 143.933 518.891 145.216 519.648C145.949 520.045 146.633 520.527 147.253 521.085C148.064 522.113 148.514 523.381 148.536 524.691V524.918Z" fill="white"/>
<path fill-rule="evenodd" clip-rule="evenodd" d="M85.4004 103.025C86.0041 103.58 86.306 103.756 86.4317 104.513C86.6878 105.351 86.6066 106.256 86.2054 107.035C84.8648 108.605 83.0263 109.664 80.9986 110.036C80.2902 110.252 79.541 110.299 78.8114 110.172C78.0818 110.045 77.3921 109.747 76.7979 109.304C76.0787 108.82 75.468 108.191 75.0046 107.458C74.5412 106.724 74.2354 105.901 74.1065 105.043C73.8986 104.204 73.9564 103.321 74.2719 102.516C74.5875 101.712 75.1451 101.026 75.8672 100.554C77.2726 99.4873 78.8825 98.7232 80.5961 98.3094C81.2562 98.1909 81.9351 98.2346 82.5746 98.4366C83.2142 98.6386 83.7954 98.993 84.2685 99.4694C85.2998 100.276 86.633 101.739 85.4004 103.025Z" fill="white"/>
<path fill-rule="evenodd" clip-rule="evenodd" d="M72.0438 108.976C72.0438 108.497 72.0438 107.917 71.5659 107.766C71.1033 107.742 70.6409 107.815 70.2079 107.98C69.7749 108.145 69.3808 108.398 69.0506 108.724C68.5994 109.251 68.3497 109.921 68.3462 110.615C68.4937 111.074 68.7962 111.466 69.2015 111.725C69.4865 111.921 69.8241 112.026 70.1699 112.026C70.5157 112.026 70.8533 111.921 71.1383 111.725C71.5659 111.473 72.5972 110.918 72.4211 110.287L72.0438 108.976Z" fill="white"/>
<path fill-rule="evenodd" clip-rule="evenodd" d="M112.793 45.6796C112.887 46.4248 112.728 47.1803 112.34 47.8231C111.602 48.9708 110.624 49.9433 109.472 50.6726C108.001 51.704 106.235 52.2263 104.442 52.1605C103.81 52.0057 103.236 51.671 102.79 51.1967C102.343 50.7224 102.044 50.1288 101.926 49.4874C101.759 47.8685 102.169 46.2425 103.083 44.8978C103.929 43.7443 105.036 42.8089 106.313 42.1687C107.59 41.5286 109 41.2021 110.428 41.2161C113.698 41.3926 113.799 46.2596 112.793 45.6796Z" fill="white"/>
<path fill-rule="evenodd" clip-rule="evenodd" d="M98.732 57.1538C99.0905 56.8384 99.3522 56.4274 99.4866 55.9686C99.0087 55.7416 98.8577 55.212 98.3295 55.0355C98.0287 54.9532 97.7136 54.9379 97.4063 54.9906C97.099 55.0432 96.8069 55.1626 96.5505 55.3404C96.2941 55.5182 96.0795 55.7501 95.9219 56.0198C95.7643 56.2895 95.6674 56.5904 95.6381 56.9016C95.6381 57.759 95.9148 57.9103 96.5939 58.2886C97.2731 58.6668 97.1976 58.6416 97.7258 58.2886C98.0853 58.08 98.4225 57.835 98.732 57.5573V57.1538Z" fill="white"/>
</g>
<path fill-rule="evenodd" clip-rule="evenodd" d="M204.955 432.091C204.955 434.613 206.49 436.857 208.401 436.857C210.313 436.857 211.848 434.613 211.848 432.091C211.848 429.569 210.313 427.3 208.401 427.3C206.49 427.3 204.955 429.342 204.955 432.091Z" fill="url(#paint26_linear_284_598)"/>
<path d="M208.402 435.748C206.901 435.748 205.685 434.066 205.685 431.99C205.685 429.915 206.901 428.233 208.402 428.233C209.902 428.233 211.118 429.915 211.118 431.99C211.118 434.066 209.902 435.748 208.402 435.748Z" fill="white"/>
<path fill-rule="evenodd" clip-rule="evenodd" d="M67.215 422.004C67.3806 422.721 67.7443 423.375 68.2643 423.894C68.7844 424.412 69.4397 424.773 70.1551 424.935C70.8705 425.096 71.6168 425.053 72.3085 424.808C73.0001 424.564 73.6091 424.129 74.0653 423.554C74.5216 422.978 74.8067 422.285 74.8879 421.555C74.9691 420.824 74.8431 420.085 74.5244 419.423C74.2056 418.761 73.7071 418.202 73.086 417.811C72.4649 417.42 71.7465 417.213 71.0132 417.213C69.8823 417.358 68.8526 417.94 68.1433 418.835C67.4339 419.73 67.1009 420.867 67.215 422.004Z" fill="url(#paint27_linear_284_598)"/>
<path fill-rule="evenodd" clip-rule="evenodd" d="M67.9192 422.005C68.0471 422.569 68.3314 423.087 68.7395 423.497C69.1476 423.907 69.6629 424.193 70.2261 424.322C70.7892 424.452 71.3774 424.419 71.9229 424.228C72.4685 424.038 72.9492 423.696 73.3097 423.244C73.6703 422.791 73.8961 422.246 73.9611 421.67C74.0261 421.094 73.9278 420.512 73.6773 419.99C73.4269 419.468 73.0345 419.028 72.5454 418.719C72.0563 418.411 71.4903 418.247 70.9125 418.247C70.0218 418.355 69.2089 418.809 68.649 419.512C68.0891 420.215 67.827 421.11 67.9192 422.005Z" fill="white"/>
<path fill-rule="evenodd" clip-rule="evenodd" d="M131.558 421.273C131.558 422.221 131.838 423.147 132.363 423.935C132.888 424.723 133.634 425.337 134.508 425.7C135.381 426.062 136.342 426.157 137.269 425.972C138.196 425.787 139.048 425.331 139.716 424.661C140.384 423.991 140.84 423.137 141.024 422.208C141.208 421.278 141.114 420.315 140.752 419.439C140.39 418.564 139.778 417.816 138.992 417.289C138.206 416.763 137.282 416.482 136.337 416.482C135.069 416.482 133.854 416.986 132.957 417.885C132.061 418.784 131.558 420.002 131.558 421.273Z" fill="url(#paint28_linear_284_598)"/>
<path d="M136.337 425.031C134.267 425.031 132.589 423.349 132.589 421.273C132.589 419.198 134.267 417.516 136.337 417.516C138.407 417.516 140.085 419.198 140.085 421.273C140.085 423.349 138.407 425.031 136.337 425.031Z" fill="white"/>
<path style="mix-blend-mode:screen" d="M129.184 450.008C114.308 446.164 105.356 430.958 109.19 416.043C113.024 401.129 128.192 392.154 143.069 395.998C157.946 399.842 166.897 415.049 163.063 429.963C159.229 444.878 144.061 453.852 129.184 450.008Z" fill="url(#paint29_radial_284_598)"/>
<path style="mix-blend-mode:screen" d="M1.81536 165.766C0.217815 169.86 -0.132572 174.337 0.808526 178.63C1.74962 182.923 3.9399 186.84 7.10221 189.885C10.2645 192.93 14.2567 194.966 18.5735 195.735C22.8904 196.505 27.3379 195.973 31.3532 194.207C35.3685 192.442 38.7712 189.522 41.1305 185.817C43.4899 182.112 44.7 177.788 44.6076 173.393C44.5153 168.999 43.1246 164.73 40.6116 161.128C38.0986 157.526 34.5763 154.752 30.4904 153.158C27.7818 152.097 24.8914 151.582 21.9842 151.642C19.077 151.702 16.2101 152.335 13.5472 153.506C10.8843 154.677 8.47757 156.362 6.46458 158.466C4.45159 160.57 2.87177 163.05 1.81536 165.766Z" fill="url(#paint30_radial_284_598)"/>
<path style="mix-blend-mode:screen" d="M120.037 15.0652C118.44 19.1587 118.089 23.6354 119.03 27.9287C119.971 32.222 122.162 36.1389 125.324 39.1838C128.486 42.2286 132.478 44.2646 136.795 45.0339C141.112 45.8033 145.56 45.2716 149.575 43.506C153.59 41.7404 156.993 38.8203 159.352 35.1153C161.712 31.4102 162.922 27.0868 162.829 22.692C162.737 18.2973 161.346 14.0287 158.833 10.4266C156.32 6.82453 152.798 4.05075 148.712 2.45631C143.241 0.32842 137.152 0.460521 131.777 2.82369C126.403 5.18686 122.181 9.58856 120.037 15.0652Z" fill="url(#paint31_radial_284_598)"/>
<path style="mix-blend-mode:screen" d="M244.824 167.961C244.007 170.077 243.835 172.388 244.328 174.602C244.821 176.816 245.959 178.834 247.596 180.401C249.233 181.967 251.296 183.012 253.525 183.403C255.754 183.794 258.049 183.513 260.119 182.597C262.19 181.681 263.943 180.17 265.157 178.255C266.37 176.341 266.991 174.108 266.94 171.84C266.888 169.572 266.167 167.37 264.868 165.512C263.568 163.655 261.749 162.225 259.639 161.404C258.237 160.858 256.741 160.595 255.238 160.629C253.734 160.664 252.252 160.995 250.876 161.604C249.5 162.213 248.257 163.087 247.219 164.178C246.18 165.269 245.366 166.554 244.824 167.961Z" fill="url(#paint32_radial_284_598)"/>
<path style="mix-blend-mode:screen" d="M63.1648 418.146C62.4025 420.123 62.2418 422.282 62.7031 424.35C63.1644 426.419 64.227 428.303 65.7565 429.766C67.2861 431.229 69.2139 432.205 71.2964 432.569C73.3788 432.934 75.5223 432.671 77.456 431.815C79.3896 430.958 81.0265 429.546 82.1598 427.757C83.2931 425.968 83.8719 423.883 83.8231 421.764C83.7742 419.645 83.0998 417.588 81.8852 415.854C80.6706 414.119 78.9703 412.784 76.9993 412.018C74.3538 410.998 71.4125 411.069 68.8196 412.218C66.2267 413.366 64.1934 415.498 63.1648 418.146Z" fill="url(#paint33_radial_284_598)"/>
<path style="mix-blend-mode:screen" d="M200.529 428.107C199.766 430.085 199.603 432.244 200.062 434.314C200.52 436.383 201.579 438.271 203.106 439.738C204.632 441.206 206.558 442.187 208.639 442.56C210.721 442.932 212.866 442.679 214.805 441.832C216.743 440.984 218.388 439.581 219.533 437.798C220.677 436.015 221.27 433.932 221.236 431.813C221.202 429.693 220.544 427.63 219.343 425.885C218.142 424.14 216.453 422.79 214.489 422.005C213.174 421.476 211.767 421.214 210.35 421.235C208.933 421.256 207.534 421.559 206.235 422.127C204.936 422.695 203.762 423.516 202.783 424.543C201.803 425.569 201.037 426.781 200.529 428.107Z" fill="url(#paint34_radial_284_598)"/>
<defs>
<linearGradient id="paint0_linear_284_598" x1="52.2253" y1="656.941" x2="52.2253" y2="499.834" gradientUnits="userSpaceOnUse">
<stop stop-color="#A43440"/>
<stop offset="1" stop-color="#C73634"/>
</linearGradient>
<linearGradient id="paint1_linear_284_598" x1="225.4" y1="656.941" x2="225.4" y2="499.834" gradientUnits="userSpaceOnUse">
<stop stop-color="#A43440"/>
<stop offset="1" stop-color="#C73634"/>
</linearGradient>
<radialGradient id="paint2_radial_284_598" cx="0" cy="0" r="1" gradientUnits="userSpaceOnUse" gradientTransform="translate(111.907 212.204) rotate(-180) scale(175.069 321.545)">
<stop stop-color="#F4BAB3"/>
<stop offset="0.77" stop-color="#8D6FC7"/>
<stop offset="0.96" stop-color="#B695E5"/>
</radialGradient>
<radialGradient id="paint3_radial_284_598" cx="0" cy="0" r="1" gradientUnits="userSpaceOnUse" gradientTransform="translate(138.978 32.432) rotate(-180) scale(47.2383 43.0966)">
<stop offset="0.02" stop-color="#AB5E75"/>
<stop offset="0.25" stop-color="#9F577B"/>
<stop offset="0.67" stop-color="#7F458C"/>
<stop offset="0.99" stop-color="#61349C"/>
</radialGradient>
<linearGradient id="paint4_linear_284_598" x1="140.261" y1="28.5065" x2="140.261" y2="8.88692" gradientUnits="userSpaceOnUse">
<stop stop-color="#FFFF18"/>
<stop offset="1" stop-color="#FF7400"/>
</linearGradient>
<radialGradient id="paint5_radial_284_598" cx="0" cy="0" r="1" gradientUnits="userSpaceOnUse" gradientTransform="translate(140.387 436.235) rotate(180) scale(83.4594 153.958)">
<stop offset="0.02" stop-color="#8881BC"/>
<stop offset="0.29" stop-color="#8375B7"/>
<stop offset="0.77" stop-color="#7555AA"/>
<stop offset="0.99" stop-color="#6D43A3"/>
</radialGradient>
<radialGradient id="paint6_radial_284_598" cx="0" cy="0" r="1" gradientUnits="userSpaceOnUse" gradientTransform="translate(139.984 202.105) rotate(-180) scale(88.7416 88.9683)">
<stop offset="0.02" stop-color="#8881BC"/>
<stop offset="0.29" stop-color="#8375B7"/>
<stop offset="0.77" stop-color="#7555AA"/>
<stop offset="0.99" stop-color="#6D43A3"/>
</radialGradient>
<radialGradient id="paint7_radial_284_598" cx="0" cy="0" r="1" gradientUnits="userSpaceOnUse" gradientTransform="translate(141.654 114.075) rotate(-180) scale(110.62 185.51)">
<stop offset="0.02" stop-color="#725EB0"/>
<stop offset="0.38" stop-color="#6D52AA"/>
<stop offset="0.99" stop-color="#61349C"/>
</radialGradient>
<linearGradient id="paint8_linear_284_598" x1="139.255" y1="257.459" x2="139.255" y2="120.224" gradientUnits="userSpaceOnUse">
<stop stop-color="#FFFF97"/>
<stop offset="1" stop-color="#FF7E59"/>
</linearGradient>
<radialGradient id="paint9_radial_284_598" cx="0" cy="0" r="1" gradientUnits="userSpaceOnUse" gradientTransform="translate(138.928 565.183) rotate(-180) scale(32.8002 60.5064)">
<stop offset="0.02" stop-color="#725EB0"/>
<stop offset="0.38" stop-color="#6D52AA"/>
<stop offset="0.99" stop-color="#61349C"/>
</radialGradient>
<radialGradient id="paint10_radial_284_598" cx="0" cy="0" r="1" gradientUnits="userSpaceOnUse" gradientTransform="translate(139.229 86.7343) rotate(-180) scale(60.4188 60.5732)">
<stop offset="0.02" stop-color="#8881BC"/>
<stop offset="0.29" stop-color="#8375B7"/>
<stop offset="0.77" stop-color="#7555AA"/>
<stop offset="0.99" stop-color="#6D43A3"/>
</radialGradient>
<linearGradient id="paint11_linear_284_598" x1="143.858" y1="378.554" x2="143.858" y2="370.283" gradientUnits="userSpaceOnUse">
<stop stop-color="#8DC7FF"/>
<stop offset="0.32" stop-color="#5C4D86"/>
</linearGradient>
<radialGradient id="paint12_radial_284_598" cx="0" cy="0" r="1" gradientUnits="userSpaceOnUse" gradientTransform="translate(143.254 372.805) rotate(180) scale(3.24481 3.2531)">
<stop offset="0.02" stop-color="#8881BC"/>
<stop offset="0.29" stop-color="#8375B7"/>
<stop offset="0.77" stop-color="#7555AA"/>
<stop offset="1" stop-color="#6D43A3"/>
</radialGradient>
<linearGradient id="paint13_linear_284_598" x1="143.858" y1="358.128" x2="143.858" y2="349.856" gradientUnits="userSpaceOnUse">
<stop stop-color="#8DC7FF"/>
<stop offset="0.32" stop-color="#5C4D86"/>
</linearGradient>
<radialGradient id="paint14_radial_284_598" cx="0" cy="0" r="1" gradientUnits="userSpaceOnUse" gradientTransform="translate(143.254 352.378) rotate(180) scale(3.24481 3.2531)">
<stop offset="0.02" stop-color="#8881BC"/>
<stop offset="0.29" stop-color="#8375B7"/>
<stop offset="0.77" stop-color="#7555AA"/>
<stop offset="1" stop-color="#6D43A3"/>
</radialGradient>
<radialGradient id="paint15_radial_284_598" cx="0" cy="0" r="1" gradientUnits="userSpaceOnUse" gradientTransform="translate(211.269 213.125) rotate(180) scale(3.24481 3.2531)">
<stop stop-color="#F4BAB3"/>
<stop offset="1" stop-color="#8D6FC7"/>
</radialGradient>
<radialGradient id="paint16_radial_284_598" cx="0" cy="0" r="1" gradientUnits="userSpaceOnUse" gradientTransform="translate(204.025 154.52) rotate(180) scale(3.24481 3.2531)">
<stop stop-color="#F4BAB3"/>
<stop offset="1" stop-color="#8D6FC7"/>
</radialGradient>
<radialGradient id="paint17_radial_284_598" cx="0" cy="0" r="1" gradientUnits="userSpaceOnUse" gradientTransform="translate(172.608 259.425) rotate(180) scale(3.2448 3.2531)">
<stop stop-color="#F4BAB3"/>
<stop offset="1" stop-color="#8D6FC7"/>
</radialGradient>
<radialGradient id="paint18_radial_284_598" cx="0" cy="0" r="1" gradientUnits="userSpaceOnUse" gradientTransform="translate(108.643 264.393) rotate(180) scale(3.24479 3.2531)">
<stop stop-color="#F4BAB3"/>
<stop offset="1" stop-color="#8D6FC7"/>
</radialGradient>
<radialGradient id="paint19_radial_284_598" cx="0" cy="0" r="1" gradientUnits="userSpaceOnUse" gradientTransform="translate(65.3283 225.76) rotate(180) scale(3.2448 3.2531)">
<stop stop-color="#F4BAB3"/>
<stop offset="1" stop-color="#8D6FC7"/>
</radialGradient>
<radialGradient id="paint20_radial_284_598" cx="0" cy="0" r="1" gradientUnits="userSpaceOnUse" gradientTransform="translate(71.9691 152.376) rotate(180) scale(3.24481 3.25311)">
<stop stop-color="#F4BAB3"/>
<stop offset="1" stop-color="#8D6FC7"/>
</radialGradient>
<radialGradient id="paint21_radial_284_598" cx="0" cy="0" r="1" gradientUnits="userSpaceOnUse" gradientTransform="translate(104.517 114.524) rotate(180) scale(3.24481 3.25311)">
<stop stop-color="#F4BAB3"/>
<stop offset="1" stop-color="#8D6FC7"/>
</radialGradient>
<radialGradient id="paint22_radial_284_598" cx="0" cy="0" r="1" gradientUnits="userSpaceOnUse" gradientTransform="translate(159.327 108.598) rotate(180) scale(3.2448 3.25302)">
<stop stop-color="#F4BAB3"/>
<stop offset="1" stop-color="#8D6FC7"/>
</radialGradient>
<linearGradient id="paint23_linear_284_598" x1="108.643" y1="607.053" x2="108.643" y2="432.47" gradientUnits="userSpaceOnUse">
<stop stop-color="#A43411"/>
<stop offset="1" stop-color="#C73634"/>
</linearGradient>
<linearGradient id="paint24_linear_284_598" x1="26.8685" y1="176.61" x2="16.5304" y2="176.61" gradientUnits="userSpaceOnUse">
<stop stop-color="#FFFF18"/>
<stop offset="1" stop-color="#FF7400"/>
</linearGradient>
<linearGradient id="paint25_linear_284_598" x1="260.344" y1="173.786" x2="250.66" y2="173.786" gradientUnits="userSpaceOnUse">
<stop stop-color="#FFFF18"/>
<stop offset="1" stop-color="#FF7400"/>
</linearGradient>
<linearGradient id="paint26_linear_284_598" x1="208.401" y1="436.756" x2="208.401" y2="427.199" gradientUnits="userSpaceOnUse">
<stop stop-color="#8DC7FF"/>
<stop offset="0.32" stop-color="#5C4D86"/>
</linearGradient>
<linearGradient id="paint27_linear_284_598" x1="70.9125" y1="426.821" x2="70.9125" y2="417.238" gradientUnits="userSpaceOnUse">
<stop stop-color="#8DC7FF"/>
<stop offset="0.32" stop-color="#5C4D86"/>
</linearGradient>
<linearGradient id="paint28_linear_284_598" x1="136.337" y1="426.064" x2="136.337" y2="416.482" gradientUnits="userSpaceOnUse">
<stop stop-color="#8DC7FF"/>
<stop offset="0.32" stop-color="#5C4D86"/>
</linearGradient>
<radialGradient id="paint29_radial_284_598" cx="0" cy="0" r="1" gradientUnits="userSpaceOnUse" gradientTransform="translate(136.346 423.463) rotate(-159.039) scale(27.7879 27.8407)">
<stop stop-color="#003CEE"/>
<stop offset="0.06" stop-color="#0036D6"/>
<stop offset="0.2" stop-color="#00289E"/>
<stop offset="0.34" stop-color="#001C6D"/>
<stop offset="0.48" stop-color="#001246"/>
<stop offset="0.62" stop-color="#000A27"/>
<stop offset="0.75" stop-color="#000412"/>
<stop offset="0.88" stop-color="#000104"/>
<stop offset="1"/>
</radialGradient>
<radialGradient id="paint30_radial_284_598" cx="0" cy="0" r="1" gradientUnits="userSpaceOnUse" gradientTransform="translate(22.8851 174.41) rotate(-158.771) scale(22.1558 22.1976)">
<stop stop-color="#FF9A00"/>
<stop offset="0.09" stop-color="#D68100"/>
<stop offset="0.23" stop-color="#9E5F00"/>
<stop offset="0.36" stop-color="#6E4200"/>
<stop offset="0.5" stop-color="#462A00"/>
<stop offset="0.63" stop-color="#271800"/>
<stop offset="0.76" stop-color="#120B00"/>
<stop offset="0.89" stop-color="#040300"/>
<stop offset="1"/>
</radialGradient>
<radialGradient id="paint31_radial_284_598" cx="0" cy="0" r="1" gradientUnits="userSpaceOnUse" gradientTransform="translate(141.099 23.7799) rotate(-158.771) scale(22.1558 22.1976)">
<stop stop-color="#FF9A00"/>
<stop offset="0.09" stop-color="#D68100"/>
<stop offset="0.23" stop-color="#9E5F00"/>
<stop offset="0.36" stop-color="#6E4200"/>
<stop offset="0.5" stop-color="#462A00"/>
<stop offset="0.63" stop-color="#271800"/>
<stop offset="0.76" stop-color="#120B00"/>
<stop offset="0.89" stop-color="#040300"/>
<stop offset="1"/>
</radialGradient>
<radialGradient id="paint32_radial_284_598" cx="0" cy="0" r="1" gradientUnits="userSpaceOnUse" gradientTransform="translate(255.673 172.726) rotate(-158.771) scale(11.4663 11.4879)">
<stop stop-color="#FF9A00"/>
<stop offset="0.09" stop-color="#D68100"/>
<stop offset="0.23" stop-color="#9E5F00"/>
<stop offset="0.36" stop-color="#6E4200"/>
<stop offset="0.5" stop-color="#462A00"/>
<stop offset="0.63" stop-color="#271800"/>
<stop offset="0.76" stop-color="#120B00"/>
<stop offset="0.89" stop-color="#040300"/>
<stop offset="1"/>
</radialGradient>
<radialGradient id="paint33_radial_284_598" cx="0" cy="0" r="1" gradientUnits="userSpaceOnUse" gradientTransform="translate(73.4154 422.475) rotate(-158.771) scale(10.6895 10.7097)">
<stop stop-color="#003CEE"/>
<stop offset="0.06" stop-color="#0036D6"/>
<stop offset="0.2" stop-color="#00289E"/>
<stop offset="0.34" stop-color="#001C6D"/>
<stop offset="0.48" stop-color="#001246"/>
<stop offset="0.62" stop-color="#000A27"/>
<stop offset="0.75" stop-color="#000412"/>
<stop offset="0.88" stop-color="#000104"/>
<stop offset="1"/>
</radialGradient>
<radialGradient id="paint34_radial_284_598" cx="0" cy="0" r="1" gradientUnits="userSpaceOnUse" gradientTransform="translate(210.815 432.437) rotate(-158.771) scale(10.6895 10.7097)">
<stop stop-color="#003CEE"/>
<stop offset="0.06" stop-color="#0036D6"/>
<stop offset="0.2" stop-color="#00289E"/>
<stop offset="0.34" stop-color="#001C6D"/>
<stop offset="0.48" stop-color="#001246"/>
<stop offset="0.62" stop-color="#000A27"/>
<stop offset="0.75" stop-color="#000412"/>
<stop offset="0.88" stop-color="#000104"/>
<stop offset="1"/>
</radialGradient>
</defs>
</svg>
