<svg width="180" height="27" viewBox="0 0 180 27" fill="none" xmlns="http://www.w3.org/2000/svg">
<path fill-rule="evenodd" clip-rule="evenodd" d="M26.2179 2.36483C26.9321 2.53542 27.5585 2.96295 27.9776 3.56586C28.412 4.32637 28.6189 5.19567 28.5735 6.07034C28.5729 7.21993 28.3971 8.36271 28.0521 9.45931C27.6465 10.7392 27.139 11.9846 26.5345 13.1834L25.8269 14.7383L22.3448 6.28448C22.1746 5.88176 22.0315 5.46807 21.9166 5.04621C21.8254 4.72422 21.7692 4.39334 21.749 4.05931C21.7313 3.63697 21.8824 3.22496 22.1688 2.91408C22.4552 2.60321 22.8535 2.419 23.2759 2.40207V2.15069H12.7738V2.40207C13.1311 2.46742 13.4765 2.58672 13.7979 2.75586C14.1259 2.97647 14.4023 3.26551 14.6079 3.6031C14.9707 4.17344 15.2822 4.77475 15.539 5.4L17.1776 9.31034L14.2169 15.1666L9.80379 4.92517C9.6902 4.72054 9.59666 4.5054 9.52448 4.28276C9.48684 4.12077 9.46502 3.95551 9.45931 3.78931C9.45693 3.47756 9.56964 3.17588 9.77586 2.94207C10.0304 2.66735 10.3508 2.46224 10.7069 2.34621V2.11345H0V2.36483C0.870736 2.63071 1.65911 3.11463 2.29034 3.77069C3.11876 4.72359 3.79691 5.79733 4.30138 6.95483L11.0793 22.019H11.3586L17.4662 9.91552L22.6893 22.019H22.9686L29.1786 8.61207C29.8366 7.0852 30.6675 5.63885 31.6552 4.30138C32.3003 3.46308 33.1324 2.78717 34.0852 2.32759V2.08552H26.2179V2.36483Z" fill="#54575A"/>
<path d="M43.2931 15.6693C42.6228 17.3917 41.1424 18.239 38.8055 18.239C37.5374 18.3059 36.3032 17.8163 35.4259 16.8983C34.5301 15.8165 34.0747 14.437 34.1503 13.0345H43.4607V12.8576C43.4758 11.7415 43.1511 10.6472 42.5297 9.72C41.8935 8.82419 41.033 8.11139 40.0345 7.6531C38.939 7.15384 37.7469 6.90268 36.5431 6.91759C35.2035 6.90021 33.8812 7.22039 32.6979 7.84862C31.5443 8.46029 30.5787 9.37431 29.9048 10.4928C29.1862 11.702 28.8246 13.09 28.8621 14.4962C28.8341 15.7985 29.1556 17.0844 29.7931 18.2203C30.4211 19.3064 31.3359 20.1987 32.4372 20.7993C33.6157 21.4401 34.9414 21.7611 36.2824 21.7303C37.9902 21.8101 39.6695 21.2713 41.0121 20.2128C42.3587 19.0618 43.2637 17.4788 43.5724 15.7345L43.2931 15.6693ZM34.7555 8.71448C34.9743 7.90191 35.7109 7.33706 36.5524 7.33655C36.808 7.33768 37.0598 7.39824 37.2879 7.51345C37.5272 7.6452 37.7241 7.84214 37.8559 8.08138C38.0013 8.31236 38.12 8.55912 38.2097 8.8169C38.3288 9.18493 38.4008 9.5666 38.4238 9.95276C38.4238 10.409 38.489 11.0421 38.489 11.8148V12.5224H34.1503C34.1539 11.791 34.2005 11.0604 34.29 10.3345C34.3937 9.76888 34.5495 9.21409 34.7555 8.67724V8.71448Z" fill="#54575A"/>
<path d="M59.9119 19.44C59.822 19.5184 59.705 19.5585 59.586 19.5517H59.2694C58.9661 19.5572 58.6839 19.3965 58.5339 19.1327C58.32 18.608 58.2338 18.04 58.2826 17.4755V10.7255C58.3656 9.65545 58.032 8.59472 57.3515 7.76479C56.6 7.06339 55.5805 6.72357 54.5584 6.83375C53.4283 6.8531 52.3039 6.99989 51.2067 7.27134C49.9605 7.55185 48.7513 7.97679 47.6036 8.53755C46.6677 8.92556 45.824 9.50605 45.127 10.2413C44.6397 10.7429 44.3517 11.4049 44.317 12.1034C44.2947 12.6485 44.5125 13.176 44.9129 13.5465C45.3569 13.9193 45.9261 14.109 46.505 14.0772C47.207 14.0578 47.8743 13.7676 48.367 13.2672C48.9626 12.644 49.2698 11.7998 49.2143 10.9396V10.4462C49.1686 9.72498 49.3834 9.01135 49.8195 8.43513C50.1681 7.99693 50.7028 7.74855 51.2626 7.76479C51.6623 7.74651 52.0574 7.85751 52.3891 8.08134C52.7452 8.36164 52.9868 8.76218 53.0688 9.20789C53.2309 9.95067 53.3028 10.7103 53.2829 11.4703V12.9507C51.8398 13.3696 50.4898 13.8258 49.4005 14.2541C48.3023 14.6714 47.2297 15.1533 46.1884 15.6972C45.0214 16.2107 44.2509 17.3465 44.2053 18.6207C44.1936 19.5021 44.6145 20.3334 45.3319 20.8458C46.1793 21.4355 47.1958 21.7329 48.2274 21.6931C49.2897 21.7118 50.3418 21.4823 51.2998 21.0227C52.0979 20.5977 52.7962 20.0073 53.3481 19.291C53.413 19.9621 53.7131 20.5887 54.1953 21.06C54.7078 21.5127 55.3739 21.7525 56.0574 21.7303C56.8245 21.7413 57.5804 21.5451 58.2453 21.1624C58.9604 20.7819 59.5686 20.2281 60.0143 19.5517L59.9119 19.44ZM51.6163 19.6913C50.527 19.6913 49.9591 18.9465 49.9591 17.4289C49.9484 16.5187 50.2808 15.6379 50.8901 14.9617C51.5738 14.2857 52.4059 13.7788 53.3201 13.4813V17.6896C53.3581 18.2227 53.1954 18.7507 52.8639 19.17C52.5739 19.5318 52.1258 19.7298 51.6629 19.7007L51.6163 19.6913Z" fill="#54575A"/>
<path fill-rule="evenodd" clip-rule="evenodd" d="M59.9119 20.9948C60.4102 21.0001 60.8756 20.7463 61.1409 20.3245C61.4667 19.5681 61.601 18.7431 61.5319 17.9224V6.10757C61.6166 5.1083 61.4199 4.10529 60.964 3.21205C60.6402 2.66599 60.0436 2.34087 59.4092 2.36481V2.04826C60.5823 1.75964 61.8112 1.48032 63.0123 1.11722C64.2133 0.754118 65.4143 0.456187 66.4664 0.0744629V18.4903C66.417 19.1276 66.5258 19.7672 66.783 20.3524C67.0271 20.6988 67.4207 20.9094 67.8444 20.9203V21.2369H59.9119V20.9948Z" fill="#54575A"/>
<path fill-rule="evenodd" clip-rule="evenodd" d="M70.386 20.9203C69.7264 20.1651 69.4065 19.1719 69.5015 18.1738V8.46307H67.3508L67.2856 8.221C68.1441 7.79726 68.9582 7.28888 69.7156 6.70341C70.5927 6.01058 71.4289 5.26762 72.2201 4.47824C72.9962 3.69614 73.715 2.85915 74.3708 1.97375L74.6222 2.04824V7.2341H77.8622L77.1639 8.43513H74.6222V17.2148C74.5753 17.8588 74.7074 18.5033 75.0039 19.0769C75.2535 19.4363 75.6649 19.649 76.1025 19.6448C76.3404 19.6319 76.577 19.6008 76.8101 19.5517C77.0381 19.5029 77.2535 19.4078 77.4432 19.2724L77.6201 19.5238C76.877 20.1553 76.0723 20.7105 75.2181 21.181C74.4858 21.5536 73.6748 21.7451 72.8532 21.7396C71.9578 21.7931 71.0755 21.5034 70.386 20.9296V20.9203Z" fill="#54575A"/>
<path fill-rule="evenodd" clip-rule="evenodd" d="M93.1781 20.3896C92.9454 19.6979 92.8505 18.9672 92.8988 18.239V10.8652C92.8988 8.22103 91.8002 6.88034 89.6495 6.88034C89.0753 6.86831 88.5029 6.95007 87.955 7.12241C87.3576 7.33425 86.7885 7.6188 86.2605 7.96965C85.7019 8.36068 84.9943 8.90068 84.1843 9.56172V0.139648C83.0485 0.493441 81.9312 0.847235 80.7581 1.16379C79.585 1.48034 78.3933 1.79689 77.0898 2.09482V2.41137C77.7242 2.38744 78.3209 2.71255 78.6447 3.25861C79.0822 4.15456 79.275 5.15032 79.2033 6.14482V17.6896C79.2788 18.5798 79.1349 19.4749 78.7843 20.2965C78.5038 20.7445 78.0093 21.0129 77.4809 21.0041V21.3207H85.525V21.0041C85.1012 20.9957 84.7127 20.7661 84.5009 20.399C84.2324 19.7157 84.1241 18.9799 84.1843 18.2483V10.0552C84.5322 9.74924 84.9246 9.49809 85.3481 9.31034C85.6741 9.14123 86.0333 9.04587 86.4002 9.03103C86.873 9.02036 87.316 9.26136 87.564 9.66413C87.9051 10.3269 88.0535 11.072 87.9923 11.8148V18.239C88.0037 18.8056 87.9695 19.3723 87.8898 19.9334C87.8576 20.2299 87.7186 20.5046 87.4988 20.7062C87.2625 20.879 86.9811 20.9792 86.6888 20.9948V21.3114H94.2023V20.9948C93.7758 20.996 93.3828 20.7638 93.1781 20.3896Z" fill="#54575A"/>
<path fill-rule="evenodd" clip-rule="evenodd" d="M99.5648 21.5255C98.8945 21.3766 98.2614 21.2741 97.7028 21.1717C97.2155 21.0693 96.7201 21.0101 96.2224 20.9948C95.9978 21.0013 95.7738 21.0231 95.5521 21.06C95.3702 21.1183 95.1928 21.1898 95.0214 21.2741V14.7569L95.31 14.6824C96.1401 16.0228 97.074 17.296 98.1031 18.4903C98.7606 19.2866 99.5475 19.9664 100.431 20.5014C101.072 20.8797 101.8 21.088 102.544 21.1066C103.081 21.1556 103.616 20.9918 104.034 20.6503C104.347 20.3312 104.512 19.8958 104.49 19.4493C104.514 18.8854 104.281 18.341 103.857 17.969C103.162 17.4522 102.393 17.0441 101.576 16.7586L99.5276 15.9486C98.2599 15.5148 97.0873 14.8416 96.0735 13.9655C95.4147 13.3015 95.0579 12.3959 95.0866 11.461C95.0611 10.6313 95.2955 9.81426 95.7569 9.12414C96.2385 8.40027 96.9079 7.82099 97.6935 7.44828C98.6431 7.00685 99.6817 6.79021 100.729 6.81517C101.352 6.80769 101.975 6.85442 102.591 6.95483C103.187 7.06655 103.754 7.13172 104.211 7.24345C104.667 7.35517 105.058 7.3831 105.309 7.3831C105.473 7.40299 105.639 7.40299 105.803 7.3831L106.119 7.28069L106.51 12.569L106.259 12.6434C105.391 11.1715 104.322 9.82726 103.084 8.64931C102.328 7.92193 101.338 7.48644 100.291 7.42035C99.7791 7.3916 99.2747 7.5542 98.8759 7.87655C98.5027 8.1773 98.2924 8.63581 98.3079 9.11483C98.2827 9.63308 98.4911 10.1354 98.8759 10.4834C99.4241 10.9361 100.057 11.2747 100.738 11.4797L103.168 12.2897C104.383 12.6193 105.507 13.221 106.454 14.0493C107.121 14.7235 107.478 15.6437 107.441 16.591C107.502 18.0256 106.918 19.4123 105.849 20.371C104.642 21.3307 103.126 21.8173 101.585 21.7397C100.898 21.7286 100.213 21.6601 99.5369 21.5348L99.5648 21.5255Z" fill="#54575A"/>
<path fill-rule="evenodd" clip-rule="evenodd" d="M111.492 5.95862C112.296 5.98169 113.075 5.67419 113.647 5.10774C114.218 4.54129 114.533 3.76536 114.517 2.96069C114.498 2.20402 114.199 1.48127 113.679 0.931034C113.125 0.310252 112.323 -0.0310851 111.492 -4.19677e-07C110.977 -0.00574928 110.472 0.139946 110.039 0.418965C109.588 0.692074 109.208 1.06866 108.931 1.51759C108.659 1.95036 108.511 2.44952 108.503 2.96069C108.51 3.76587 108.846 4.53308 109.434 5.08345C109.968 5.64895 110.714 5.96613 111.492 5.95862Z" fill="#54575A"/>
<path fill-rule="evenodd" clip-rule="evenodd" d="M140.381 20.4269C140.117 19.8273 140.009 19.171 140.065 18.5183V10.8652C140.065 8.22106 138.975 6.88037 136.825 6.88037C136.224 6.88382 135.628 6.97799 135.056 7.15968C134.429 7.38766 133.837 7.70096 133.296 8.09071C132.649 8.51363 132.027 8.97371 131.434 9.46864C131.351 8.80577 131.038 8.19305 130.549 7.73692C129.894 7.17377 129.048 6.88381 128.185 6.92692C127.215 6.93572 126.26 7.16495 125.392 7.59726C124.472 8.02838 123.629 8.60706 122.896 9.31037V6.88037C122.226 7.12244 121.481 7.41106 120.671 7.65313C119.861 7.8952 119.051 8.18382 118.241 8.4352C117.431 8.68657 116.761 8.85416 116.193 8.99382V9.31037C116.743 9.32061 117.249 9.61238 117.534 10.0831C117.85 10.9397 117.984 11.8532 117.925 12.7645V18.5183C117.988 19.1836 117.798 19.8483 117.394 20.3804C117.06 20.7256 116.599 20.9176 116.118 20.9111C115.614 20.9509 115.119 20.7549 114.778 20.3804C114.419 19.8295 114.258 19.1728 114.322 18.5183V6.77795C113.232 7.19692 112.096 7.58795 110.905 7.94175C109.713 8.29554 108.465 8.64002 107.227 8.92864V9.20796C107.906 9.20938 108.536 9.56145 108.894 10.139C109.274 11.0188 109.443 11.9753 109.387 12.9321V17.5873C109.439 18.4648 109.306 19.3435 108.996 20.1662C108.732 20.6571 108.213 20.9563 107.655 20.939V21.2555H124.237V20.939C123.817 20.8948 123.44 20.6618 123.213 20.3059C122.954 19.7212 122.845 19.0812 122.896 18.4438V9.91554C123.166 9.65041 123.482 9.43596 123.827 9.28244C124.168 9.11168 124.545 9.02546 124.926 9.03106C125.415 8.99653 125.884 9.22774 126.155 9.63623C126.469 10.3074 126.603 11.0483 126.546 11.7869V18.4904C126.6 19.1278 126.491 19.7685 126.229 20.3524C126.01 20.6884 125.643 20.8995 125.243 20.9204V21.2369H132.858V20.9204C132.441 20.8958 132.056 20.6879 131.806 20.3524C131.568 19.7364 131.469 19.0748 131.518 18.4159V9.8783C131.826 9.60365 132.156 9.35456 132.505 9.13347C132.837 8.93486 133.216 8.8258 133.603 8.81692C134.078 8.80628 134.523 9.05155 134.767 9.45933C135.104 10.16 135.249 10.9375 135.186 11.7124V18.4159C135.244 19.0743 135.162 19.7377 134.944 20.3617C134.709 20.7127 134.304 20.9114 133.883 20.8831V21.1997H141.517V20.8831C141.079 21.0056 140.613 20.8185 140.381 20.4269Z" fill="#54575A"/>
<path d="M157 10.9397C156.839 10.1206 156.474 9.35533 155.939 8.71448C155.042 7.51838 153.626 6.82568 152.131 6.85241C151.344 6.83709 150.562 6.99274 149.841 7.30862C149.137 7.64229 148.482 8.0715 147.895 8.58414V6.8431C147.225 7.09448 146.452 7.33655 145.642 7.62517C144.832 7.91379 143.984 8.14655 143.137 8.39793C142.29 8.64931 141.545 8.85414 140.847 9.03103V9.31034C141.289 9.3562 141.719 9.48574 142.113 9.69207C142.457 9.9476 142.685 10.3295 142.746 10.7534C142.906 11.4114 142.978 12.0876 142.96 12.7645V22.5403C142.992 23.3459 142.907 24.1518 142.709 24.9331C142.608 25.4048 142.332 25.8206 141.936 26.0969C141.536 26.3278 141.092 26.4736 140.633 26.5252V26.8417H150.083V26.5252C149.449 26.5257 148.841 26.2706 148.398 25.8176C147.996 25.1251 147.82 24.3244 147.895 23.5272V20.8552C148.218 21.1003 148.58 21.2892 148.966 21.4138C149.515 21.5815 150.086 21.6663 150.66 21.6652C151.54 21.6643 152.412 21.4969 153.23 21.1717C154.03 20.8276 154.753 20.3239 155.352 19.6914C155.996 18.9717 156.487 18.1293 156.796 17.2148C157.17 16.173 157.356 15.0727 157.345 13.9655C157.348 12.9341 157.229 11.906 156.991 10.9024L157 10.9397ZM151.247 19.319C150.926 20.1651 150.139 20.7445 149.236 20.7993C148.935 20.8003 148.637 20.7402 148.36 20.6224C148.179 20.5305 148.012 20.4112 147.867 20.2686V9.09621C148.329 8.6867 148.909 8.43552 149.524 8.37931C150.26 8.37931 150.865 8.87276 151.386 9.82241C151.952 11.2831 152.193 12.8492 152.094 14.4124C152.094 16.7028 151.842 18.3321 151.275 19.319H151.247Z" fill="#54575A"/>
<path fill-rule="evenodd" clip-rule="evenodd" d="M157.177 20.9948C157.678 21.0016 158.147 20.7478 158.415 20.3245C158.732 19.5656 158.863 18.7421 158.797 17.9224V6.1076C158.879 5.1095 158.686 4.10799 158.238 3.21208C157.915 2.66602 157.318 2.34091 156.684 2.36484V2.04829C157.847 1.75967 159.086 1.48036 160.287 1.11725C161.488 0.754151 162.679 0.44691 163.741 0.0651855V18.4904C163.687 19.1278 163.796 19.7685 164.057 20.3524C164.302 20.6989 164.695 20.9094 165.119 20.9204V21.2369H157.177V20.9948Z" fill="#54575A"/>
<path d="M179.373 15.6693C178.703 17.3917 177.185 18.2389 174.885 18.2389C173.619 18.2984 172.387 17.81 171.506 16.8983C170.604 15.8217 170.159 14.4347 170.268 13.0345H179.578V12.8576C179.588 11.7422 179.263 10.6494 178.647 9.71998C178.01 8.82755 177.158 8.11024 176.17 7.63446C173.82 6.58376 171.119 6.6626 168.834 7.8486C167.679 8.4595 166.714 9.37369 166.041 10.4927C165.319 11.6946 164.951 13.0759 164.979 14.4776C164.951 15.7798 165.273 17.0658 165.91 18.2017C166.542 19.2881 167.46 20.1802 168.564 20.7807C169.742 21.4227 171.068 21.7437 172.409 21.7117C174.125 21.7907 175.813 21.2523 177.166 20.1941C178.494 19.0411 179.385 17.4665 179.69 15.7345L179.373 15.6693ZM170.835 8.71446C171.075 7.91633 171.799 7.36131 172.632 7.33653C172.888 7.33766 173.14 7.39822 173.368 7.51342C173.607 7.64518 173.804 7.84212 173.936 8.08136C174.081 8.31234 174.2 8.55909 174.29 8.81687C174.409 9.18491 174.481 9.56658 174.504 9.95273C174.504 10.4089 174.569 11.042 174.569 11.8148V12.5224H170.23C170.234 11.791 170.28 11.0604 170.37 10.3345C170.474 9.76885 170.629 9.21407 170.835 8.67722V8.71446Z" fill="#54575A"/>
</svg>
